<?xml version="1.0" encoding="utf-8"?>
<!-- Generator: Adobe Illustrator 24.3.0, SVG Export Plug-In . SVG Version: 6.00 Build 0)  -->
<svg version="1.1" id="Layer_1" xmlns="http://www.w3.org/2000/svg" xmlns:xlink="http://www.w3.org/1999/xlink" x="0px" y="0px"
	 viewBox="0 0 353.92 116.91" style="enable-background:new 0 0 353.92 116.91;" xml:space="preserve">
<style type="text/css">
	.st0{fill:none;stroke:#08495D;stroke-miterlimit:10;}
	.st1{fill:none;stroke:#08495D;stroke-miterlimit:10;stroke-dasharray:11.7711,11.7711;}
</style>
<g>
	<g>
		<g>
			<g>
				<g>
					<polygon class="st0" points="227.45,32.38 197.16,16.25 348.69,3.47 348.85,4.45 					"/>
					<polygon class="st0" points="200.62,16.96 227.59,31.32 341.77,5.05 					"/>
				</g>
			</g>
		</g>
		<g>
			<g>
				<g>
					<polygon class="st0" points="279.97,76.43 256.62,54.72 240.66,63.41 227.06,32.05 227.98,31.65 241.15,62.01 351.33,1.98 
											"/>
					<polygon class="st0" points="257.55,54.21 279.93,75.02 346.14,5.94 					"/>
				</g>
			</g>
		</g>
		<g>
			<g>
				
					<rect x="240.73" y="60.28" transform="matrix(0.9833 -0.1818 0.1818 0.9833 -6.8608 46.7101)" class="st0" width="21.24" height="1"/>
			</g>
		</g>
	</g>
	<g>
		<g>
			<path class="st0" d="M230.18,64.49c0,0-2.09,0.88-5.59,2.18"/>
			<path class="st1" d="M213.46,70.48c-18.85,5.92-47.98,12.27-56.47-1.44c-12.87-20.8,18.84-28.98,28.91-17.52
				c10.07,11.46-12.25,47.54-38.74,43.74c-26.49-3.79-65.81-25.38-97.47,2.49c-16.68,14.69-29.5,18.42-37.9,18.67"/>
			<path class="st0" d="M5.92,115.99c-3.72-0.69-5.64-1.94-5.64-1.94"/>
		</g>
	</g>
</g>
</svg>
